<?xml version="1.0" standalone="no"?>
<!DOCTYPE svg PUBLIC "-//W3C//DTD SVG 20010904//EN"
 "http://www.w3.org/TR/2001/REC-SVG-20010904/DTD/svg10.dtd">
<svg version="1.0" xmlns="http://www.w3.org/2000/svg"
 width="256.000000pt" height="256.000000pt" viewBox="0 0 256.000000 256.000000"
 preserveAspectRatio="xMidYMid meet">

<g transform="translate(0.000000,256.000000) scale(0.100000,-0.100000)"
fill="#000000" stroke="none">
<path d="M0 1280 l0 -1280 1280 0 1280 0 0 1280 0 1280 -1280 0 -1280 0 0
-1280z m1491 797 c206 -179 223 -205 223 -360 1 -96 0 -99 -27 -123 -25 -21
-37 -24 -116 -24 -74 0 -93 3 -114 20 -29 23 -47 74 -47 137 0 30 -7 50 -24
70 -23 26 -29 28 -104 28 -115 0 -122 -8 -122 -143 l0 -104 37 -34 c20 -19 45
-36 55 -40 10 -3 18 -9 18 -13 0 -5 34 -34 75 -66 41 -31 75 -62 75 -68 0 -6
3 -7 6 -4 15 14 251 -215 272 -263 22 -51 19 -342 -4 -400 -22 -53 -81 -103
-152 -126 -49 -16 -87 -19 -262 -18 -190 0 -209 2 -264 23 -114 45 -166 130
-166 272 0 81 10 112 44 134 33 22 174 32 205 16 28 -15 51 -68 51 -115 0 -46
27 -114 51 -126 10 -6 50 -10 89 -10 62 0 74 3 95 25 23 22 25 32 25 111 0 69
-4 94 -21 123 -13 23 -103 102 -252 221 -293 235 -282 218 -282 450 0 153 2
168 24 213 29 60 73 93 153 118 55 18 89 20 281 18 119 -1 217 -6 217 -10 0
-5 6 -9 13 -9 6 1 2 9 -10 19 -12 10 -19 21 -16 25 4 3 -1 6 -10 6 -9 0 -20 6
-24 13 -4 8 -17 19 -28 25 -14 8 -16 11 -5 12 8 0 27 -10 41 -23z"/>
</g>
</svg>
